<svg width="360" height="420" viewBox="0 0 360 420" fill="none" xmlns="http://www.w3.org/2000/svg">
<path d="M360 0H0V420H360V0Z" fill="#3A3838" fill-opacity="0.86"/>
<path d="M249.5 188.5H111.5V231.5H249.5V188.5Z" stroke="white" stroke-linejoin="round"/>
<path d="M145.951 222.267H145.839C145.229 222.267 144.718 221.767 144.673 221.129C144.629 220.461 145.117 219.879 145.763 219.835C145.788 219.833 145.814 219.832 145.841 219.832C146.458 219.832 146.974 220.322 147.02 220.949C147.032 221.197 146.991 221.551 146.736 221.844L146.73 221.851L146.724 221.858C146.528 222.091 146.261 222.232 145.951 222.267ZM132.219 222.26C131.568 222.26 131.039 221.717 131.039 221.05C131.039 220.383 131.568 219.841 132.219 219.841C132.869 219.841 133.399 220.383 133.399 221.05C133.399 221.717 132.869 222.26 132.219 222.26Z" fill="white"/>
<path d="M145.876 221.266C145.921 221.255 145.942 221.234 145.96 221.213C145.968 221.204 145.976 221.195 145.983 221.186C146.02 221.144 146.023 221.055 146.022 221.01C146.009 220.904 145.918 220.832 145.841 220.832C145.837 220.832 145.834 220.832 145.831 220.832C145.753 220.837 145.665 220.941 145.672 221.062C145.681 221.179 145.767 221.266 145.839 221.266H145.876ZM132.22 221.26C132.319 221.26 132.399 221.166 132.399 221.05C132.399 220.934 132.319 220.84 132.22 220.84C132.12 220.84 132.04 220.934 132.04 221.05C132.04 221.166 132.12 221.26 132.22 221.26ZM145.999 223.266C145.952 223.266 145.888 223.266 145.839 223.266C144.702 223.266 143.757 222.354 143.677 221.198C143.596 219.993 144.494 218.918 145.695 218.836C145.744 218.833 145.793 218.832 145.841 218.832C146.98 218.832 147.941 219.732 148.019 220.888C148.051 221.491 147.874 222.061 147.49 222.501C147.106 222.958 146.576 223.218 145.999 223.266ZM132.22 223.26C131.015 223.26 130.04 222.271 130.04 221.05C130.04 219.829 131.015 218.84 132.22 218.84C133.424 218.84 134.399 219.829 134.399 221.05C134.399 222.271 133.424 223.26 132.22 223.26ZM145.198 216.394H133.133C132.7 216.394 132.316 216.1 132.203 215.677L128.278 201.248H125.522C124.993 201.248 124.561 200.809 124.561 200.27C124.561 199.733 124.993 199.293 125.522 199.293H128.999C129.431 199.293 129.816 199.586 129.928 200.01L133.854 214.439H144.558L148.114 206.134H136.258C135.729 206.134 135.296 205.694 135.296 205.156C135.296 204.619 135.729 204.179 136.258 204.179H149.589C149.909 204.179 150.214 204.342 150.39 204.619C150.566 204.895 150.598 205.237 150.47 205.547L146.08 215.807C145.919 216.165 145.583 216.394 145.198 216.394Z" fill="white"/>
<path d="M145.876 221.266C145.921 221.255 145.942 221.234 145.96 221.213C145.968 221.204 145.976 221.195 145.983 221.186C146.02 221.144 146.023 221.055 146.022 221.01C146.009 220.904 145.918 220.832 145.841 220.832C145.837 220.832 145.834 220.832 145.831 220.832C145.753 220.837 145.665 220.941 145.672 221.062C145.681 221.179 145.767 221.266 145.839 221.266H145.876ZM132.22 221.26C132.319 221.26 132.399 221.166 132.399 221.05C132.399 220.934 132.319 220.84 132.22 220.84C132.12 220.84 132.04 220.934 132.04 221.05C132.04 221.166 132.12 221.26 132.22 221.26ZM145.999 223.266C145.952 223.266 145.888 223.266 145.839 223.266C144.702 223.266 143.757 222.354 143.677 221.198C143.596 219.993 144.494 218.918 145.695 218.836C145.744 218.833 145.793 218.832 145.841 218.832C146.98 218.832 147.941 219.732 148.019 220.888C148.051 221.491 147.874 222.061 147.49 222.501C147.106 222.958 146.576 223.218 145.999 223.266ZM132.22 223.26C131.015 223.26 130.04 222.271 130.04 221.05C130.04 219.829 131.015 218.84 132.22 218.84C133.424 218.84 134.399 219.829 134.399 221.05C134.399 222.271 133.424 223.26 132.22 223.26ZM145.198 216.394H133.133C132.7 216.394 132.316 216.1 132.203 215.677L128.278 201.248H125.522C124.993 201.248 124.561 200.809 124.561 200.27C124.561 199.733 124.993 199.293 125.522 199.293H128.999C129.431 199.293 129.816 199.586 129.928 200.01L133.854 214.439H144.558L148.114 206.134H136.258C135.729 206.134 135.296 205.694 135.296 205.156C135.296 204.619 135.729 204.179 136.258 204.179H149.589C149.909 204.179 150.214 204.342 150.39 204.619C150.566 204.895 150.598 205.237 150.47 205.547L146.08 215.807C145.919 216.165 145.583 216.394 145.198 216.394Z" fill="white"/>
<path d="M168.202 212.51L166.627 208.429C166.58 208.308 166.531 208.168 166.48 208.009C166.428 207.846 166.379 207.673 166.333 207.491C166.235 207.869 166.134 208.184 166.032 208.436L164.457 212.51H168.202ZM171.03 216.234H169.98C169.858 216.234 169.76 216.204 169.686 216.143C169.611 216.083 169.555 216.006 169.518 215.912L168.58 213.49H164.079L163.141 215.912C163.113 215.996 163.059 216.071 162.98 216.136C162.9 216.202 162.802 216.234 162.686 216.234H161.636L165.647 206.203H167.019L171.03 216.234ZM176.525 210.83C176.292 210.518 176.04 210.301 175.769 210.179C175.498 210.053 175.195 209.99 174.859 209.99C174.201 209.99 173.695 210.226 173.34 210.697C172.985 211.169 172.808 211.841 172.808 212.713C172.808 213.175 172.848 213.572 172.927 213.903C173.006 214.23 173.123 214.501 173.277 214.715C173.431 214.925 173.62 215.079 173.844 215.177C174.068 215.275 174.322 215.324 174.607 215.324C175.018 215.324 175.375 215.231 175.678 215.044C175.986 214.858 176.268 214.594 176.525 214.253V210.83ZM177.771 205.923V216.234H177.029C176.852 216.234 176.74 216.148 176.693 215.975L176.581 215.114C176.278 215.478 175.932 215.772 175.545 215.996C175.158 216.22 174.71 216.332 174.201 216.332C173.795 216.332 173.426 216.255 173.095 216.101C172.764 215.943 172.481 215.712 172.248 215.408C172.015 215.105 171.835 214.727 171.709 214.274C171.583 213.822 171.52 213.301 171.52 212.713C171.52 212.191 171.59 211.705 171.73 211.257C171.87 210.805 172.071 210.413 172.332 210.081C172.593 209.75 172.913 209.491 173.291 209.304C173.674 209.113 174.103 209.017 174.579 209.017C175.013 209.017 175.384 209.092 175.692 209.241C176.005 209.386 176.282 209.589 176.525 209.85V205.923H177.771ZM184.359 210.83C184.126 210.518 183.874 210.301 183.603 210.179C183.332 210.053 183.029 209.99 182.693 209.99C182.035 209.99 181.529 210.226 181.174 210.697C180.819 211.169 180.642 211.841 180.642 212.713C180.642 213.175 180.682 213.572 180.761 213.903C180.84 214.23 180.957 214.501 181.111 214.715C181.265 214.925 181.454 215.079 181.678 215.177C181.902 215.275 182.156 215.324 182.441 215.324C182.852 215.324 183.209 215.231 183.512 215.044C183.82 214.858 184.102 214.594 184.359 214.253V210.83ZM185.605 205.923V216.234H184.863C184.686 216.234 184.574 216.148 184.527 215.975L184.415 215.114C184.112 215.478 183.766 215.772 183.379 215.996C182.992 216.22 182.544 216.332 182.035 216.332C181.629 216.332 181.26 216.255 180.929 216.101C180.598 215.943 180.315 215.712 180.082 215.408C179.849 215.105 179.669 214.727 179.543 214.274C179.417 213.822 179.354 213.301 179.354 212.713C179.354 212.191 179.424 211.705 179.564 211.257C179.704 210.805 179.905 210.413 180.166 210.081C180.427 209.75 180.747 209.491 181.125 209.304C181.508 209.113 181.937 209.017 182.413 209.017C182.847 209.017 183.218 209.092 183.526 209.241C183.839 209.386 184.116 209.589 184.359 209.85V205.923H185.605ZM193.332 216.346C192.772 216.346 192.34 216.19 192.037 215.877C191.738 215.565 191.589 215.114 191.589 214.526V210.186H190.735C190.66 210.186 190.597 210.165 190.546 210.123C190.495 210.077 190.469 210.007 190.469 209.913V209.416L191.631 209.269L191.918 207.078C191.932 207.008 191.962 206.952 192.009 206.91C192.06 206.864 192.126 206.84 192.205 206.84H192.835V209.283H194.886V210.186H192.835V214.442C192.835 214.741 192.907 214.963 193.052 215.107C193.197 215.252 193.383 215.324 193.612 215.324C193.743 215.324 193.855 215.308 193.948 215.275C194.046 215.238 194.13 215.198 194.2 215.156C194.27 215.114 194.328 215.077 194.375 215.044C194.426 215.007 194.471 214.988 194.508 214.988C194.573 214.988 194.632 215.028 194.683 215.107L195.047 215.702C194.832 215.903 194.573 216.062 194.27 216.178C193.967 216.29 193.654 216.346 193.332 216.346ZM199.121 209.031C199.639 209.031 200.105 209.118 200.521 209.29C200.936 209.463 201.291 209.708 201.585 210.025C201.879 210.343 202.103 210.728 202.257 211.18C202.415 211.628 202.495 212.13 202.495 212.685C202.495 213.245 202.415 213.749 202.257 214.197C202.103 214.645 201.879 215.028 201.585 215.345C201.291 215.663 200.936 215.908 200.521 216.08C200.105 216.248 199.639 216.332 199.121 216.332C198.598 216.332 198.127 216.248 197.707 216.08C197.291 215.908 196.937 215.663 196.643 215.345C196.349 215.028 196.122 214.645 195.964 214.197C195.81 213.749 195.733 213.245 195.733 212.685C195.733 212.13 195.81 211.628 195.964 211.18C196.122 210.728 196.349 210.343 196.643 210.025C196.937 209.708 197.291 209.463 197.707 209.29C198.127 209.118 198.598 209.031 199.121 209.031ZM199.121 215.359C199.821 215.359 200.343 215.126 200.689 214.659C201.034 214.188 201.207 213.532 201.207 212.692C201.207 211.848 201.034 211.19 200.689 210.718C200.343 210.247 199.821 210.011 199.121 210.011C198.766 210.011 198.456 210.072 198.19 210.193C197.928 210.315 197.709 210.49 197.532 210.718C197.359 210.947 197.228 211.229 197.14 211.565C197.056 211.897 197.014 212.272 197.014 212.692C197.014 213.532 197.186 214.188 197.532 214.659C197.882 215.126 198.411 215.359 199.121 215.359ZM214.993 214.162C215.068 214.162 215.133 214.193 215.189 214.253L215.728 214.834C215.317 215.31 214.818 215.681 214.23 215.947C213.647 216.213 212.94 216.346 212.109 216.346C211.39 216.346 210.737 216.223 210.149 215.975C209.561 215.723 209.059 215.373 208.644 214.925C208.229 214.473 207.907 213.931 207.678 213.301C207.449 212.671 207.335 211.978 207.335 211.222C207.335 210.466 207.454 209.773 207.692 209.143C207.93 208.513 208.264 207.972 208.693 207.519C209.127 207.067 209.645 206.717 210.247 206.469C210.849 206.217 211.514 206.091 212.242 206.091C212.956 206.091 213.586 206.206 214.132 206.434C214.678 206.663 215.159 206.973 215.574 207.365L215.126 207.988C215.098 208.035 215.061 208.075 215.014 208.107C214.972 208.135 214.914 208.149 214.839 208.149C214.755 208.149 214.652 208.105 214.531 208.016C214.41 207.923 214.251 207.82 214.055 207.708C213.859 207.596 213.614 207.496 213.32 207.407C213.026 207.314 212.664 207.267 212.235 207.267C211.717 207.267 211.243 207.358 210.814 207.54C210.385 207.718 210.014 207.977 209.701 208.317C209.393 208.658 209.153 209.073 208.98 209.563C208.807 210.053 208.721 210.606 208.721 211.222C208.721 211.848 208.81 212.405 208.987 212.895C209.169 213.385 209.414 213.801 209.722 214.141C210.035 214.477 210.401 214.734 210.821 214.911C211.246 215.089 211.703 215.177 212.193 215.177C212.492 215.177 212.76 215.161 212.998 215.128C213.241 215.091 213.462 215.035 213.663 214.96C213.868 214.886 214.057 214.792 214.23 214.68C214.407 214.564 214.582 214.426 214.755 214.267C214.834 214.197 214.914 214.162 214.993 214.162ZM220.851 213.042C220.277 213.061 219.787 213.108 219.381 213.182C218.98 213.252 218.651 213.346 218.394 213.462C218.142 213.579 217.958 213.717 217.841 213.875C217.729 214.034 217.673 214.211 217.673 214.407C217.673 214.594 217.704 214.755 217.764 214.89C217.825 215.026 217.907 215.138 218.009 215.226C218.117 215.31 218.24 215.373 218.38 215.415C218.525 215.453 218.679 215.471 218.842 215.471C219.062 215.471 219.262 215.45 219.444 215.408C219.626 215.362 219.797 215.296 219.955 215.212C220.119 215.128 220.273 215.028 220.417 214.911C220.567 214.795 220.711 214.662 220.851 214.512V213.042ZM216.826 210.144C217.218 209.766 217.641 209.484 218.093 209.297C218.546 209.111 219.048 209.017 219.598 209.017C219.995 209.017 220.347 209.083 220.655 209.213C220.963 209.344 221.222 209.526 221.432 209.759C221.642 209.993 221.801 210.275 221.908 210.606C222.016 210.938 222.069 211.302 222.069 211.698V216.234H221.516C221.395 216.234 221.302 216.216 221.236 216.178C221.171 216.136 221.12 216.057 221.082 215.94L220.942 215.268C220.756 215.441 220.574 215.595 220.396 215.73C220.219 215.861 220.032 215.973 219.836 216.066C219.64 216.155 219.43 216.223 219.206 216.269C218.987 216.321 218.742 216.346 218.471 216.346C218.196 216.346 217.937 216.309 217.694 216.234C217.452 216.155 217.239 216.038 217.057 215.884C216.88 215.73 216.738 215.537 216.63 215.303C216.528 215.065 216.476 214.785 216.476 214.463C216.476 214.183 216.553 213.915 216.707 213.658C216.861 213.397 217.111 213.166 217.456 212.965C217.802 212.765 218.252 212.601 218.807 212.475C219.363 212.345 220.044 212.27 220.851 212.251V211.698C220.851 211.148 220.732 210.732 220.494 210.452C220.256 210.168 219.909 210.025 219.451 210.025C219.143 210.025 218.884 210.065 218.674 210.144C218.469 210.219 218.289 210.305 218.135 210.403C217.986 210.497 217.855 210.583 217.743 210.662C217.636 210.737 217.529 210.774 217.421 210.774C217.337 210.774 217.265 210.753 217.204 210.711C217.144 210.665 217.092 210.609 217.05 210.543L216.826 210.144ZM225.15 210.564C225.374 210.079 225.65 209.701 225.976 209.43C226.303 209.155 226.702 209.017 227.173 209.017C227.323 209.017 227.465 209.034 227.6 209.066C227.74 209.099 227.864 209.15 227.971 209.22L227.88 210.151C227.852 210.268 227.782 210.326 227.67 210.326C227.605 210.326 227.509 210.312 227.383 210.284C227.257 210.256 227.115 210.242 226.956 210.242C226.732 210.242 226.532 210.275 226.354 210.34C226.182 210.406 226.025 210.504 225.885 210.634C225.75 210.76 225.626 210.919 225.514 211.11C225.407 211.297 225.309 211.512 225.22 211.754V216.234H223.967V209.143H224.681C224.817 209.143 224.91 209.169 224.961 209.22C225.013 209.272 225.048 209.36 225.066 209.486L225.15 210.564ZM231.244 216.346C230.684 216.346 230.252 216.19 229.949 215.877C229.65 215.565 229.501 215.114 229.501 214.526V210.186H228.647C228.572 210.186 228.509 210.165 228.458 210.123C228.407 210.077 228.381 210.007 228.381 209.913V209.416L229.543 209.269L229.83 207.078C229.844 207.008 229.874 206.952 229.921 206.91C229.972 206.864 230.038 206.84 230.117 206.84H230.747V209.283H232.798V210.186H230.747V214.442C230.747 214.741 230.819 214.963 230.964 215.107C231.109 215.252 231.295 215.324 231.524 215.324C231.655 215.324 231.767 215.308 231.86 215.275C231.958 215.238 232.042 215.198 232.112 215.156C232.182 215.114 232.24 215.077 232.287 215.044C232.338 215.007 232.383 214.988 232.42 214.988C232.485 214.988 232.544 215.028 232.595 215.107L232.959 215.702C232.744 215.903 232.485 216.062 232.182 216.178C231.879 216.29 231.566 216.346 231.244 216.346Z" fill="white"/>
</svg>
