<svg width="59" height="12" viewBox="0 0 59 12" fill="none" xmlns="http://www.w3.org/2000/svg">
<path d="M6.14149 2.537C6.09949 2.607 6.05283 2.66067 6.00149 2.698C5.95483 2.73067 5.89649 2.747 5.82649 2.747C5.74716 2.747 5.65383 2.70733 5.54649 2.628C5.43916 2.54867 5.30383 2.46233 5.14049 2.369C4.98183 2.271 4.78816 2.18233 4.55949 2.103C4.33549 2.02367 4.06249 1.984 3.74049 1.984C3.43716 1.984 3.16883 2.026 2.93549 2.11C2.70683 2.18933 2.51316 2.299 2.35449 2.439C2.20049 2.579 2.08383 2.74467 2.00449 2.936C1.92516 3.12267 1.88549 3.32567 1.88549 3.545C1.88549 3.825 1.95316 4.05833 2.08849 4.245C2.22849 4.427 2.41049 4.58333 2.63449 4.714C2.86316 4.84467 3.11983 4.959 3.40449 5.057C3.69383 5.15033 3.98783 5.24833 4.28649 5.351C4.58983 5.45367 4.88383 5.57033 5.16849 5.701C5.45783 5.827 5.71449 5.988 5.93849 6.184C6.16716 6.38 6.34916 6.62033 6.48449 6.905C6.62449 7.18967 6.69449 7.53967 6.69449 7.955C6.69449 8.39367 6.61983 8.80667 6.47049 9.194C6.32116 9.57667 6.10183 9.91033 5.81249 10.195C5.52783 10.4797 5.17549 10.7037 4.75549 10.867C4.34016 11.0303 3.86649 11.112 3.33449 11.112C2.68116 11.112 2.08849 10.9953 1.55649 10.762C1.02449 10.524 0.569492 10.2043 0.191492 9.803L0.583492 9.159C0.620826 9.10767 0.665159 9.06567 0.716492 9.033C0.772492 8.99567 0.833159 8.977 0.898492 8.977C0.959159 8.977 1.02683 9.00267 1.10149 9.054C1.18083 9.10067 1.26949 9.16133 1.36749 9.236C1.46549 9.31067 1.57749 9.39233 1.70349 9.481C1.82949 9.56967 1.97183 9.65133 2.13049 9.726C2.29383 9.80067 2.47816 9.86367 2.68349 9.915C2.88883 9.96167 3.11983 9.985 3.37649 9.985C3.69849 9.985 3.98549 9.94067 4.23749 9.852C4.48949 9.76333 4.70183 9.63967 4.87449 9.481C5.05183 9.31767 5.18716 9.124 5.28049 8.9C5.37383 8.676 5.42049 8.42633 5.42049 8.151C5.42049 7.84767 5.35049 7.60033 5.21049 7.409C5.07516 7.213 4.89549 7.04967 4.67149 6.919C4.44749 6.78833 4.19083 6.67867 3.90149 6.59C3.61216 6.49667 3.31816 6.40333 3.01949 6.31C2.72083 6.212 2.42683 6.1 2.13749 5.974C1.84816 5.848 1.59149 5.68467 1.36749 5.484C1.14349 5.28333 0.961492 5.03367 0.821492 4.735C0.686159 4.43167 0.618492 4.05833 0.618492 3.615C0.618492 3.26033 0.686159 2.91733 0.821492 2.586C0.961492 2.25467 1.16216 1.96067 1.42349 1.704C1.68949 1.44733 2.01383 1.242 2.39649 1.088C2.78383 0.933999 3.22716 0.856999 3.72649 0.856999C4.28649 0.856999 4.79516 0.945666 5.25249 1.123C5.71449 1.30033 6.12049 1.557 6.47049 1.893L6.14149 2.537ZM14.0123 3.909V11H13.2703C13.093 11 12.981 10.9137 12.9343 10.741L12.8363 9.978C12.5283 10.3187 12.183 10.594 11.8003 10.804C11.4177 11.0093 10.979 11.112 10.4843 11.112C10.097 11.112 9.754 11.049 9.45534 10.923C9.16134 10.7923 8.914 10.6103 8.71334 10.377C8.51267 10.1437 8.361 9.86133 8.25834 9.53C8.16034 9.19867 8.11134 8.83233 8.11134 8.431V3.909H9.35734V8.431C9.35734 8.96767 9.47867 9.383 9.72134 9.677C9.96867 9.971 10.3443 10.118 10.8483 10.118C11.217 10.118 11.56 10.0317 11.8773 9.859C12.1993 9.68167 12.4957 9.439 12.7663 9.131V3.909H14.0123ZM17.241 9.292C17.4696 9.6 17.7193 9.817 17.99 9.943C18.2653 10.069 18.5663 10.132 18.893 10.132C19.5603 10.132 20.0713 9.89633 20.426 9.425C20.7806 8.95367 20.958 8.25133 20.958 7.318C20.958 6.45 20.7993 5.813 20.482 5.407C20.1693 4.99633 19.7213 4.791 19.138 4.791C18.732 4.791 18.3773 4.88433 18.074 5.071C17.7753 5.25767 17.4976 5.52133 17.241 5.862V9.292ZM17.241 4.931C17.5396 4.58567 17.8756 4.31033 18.249 4.105C18.627 3.89967 19.061 3.797 19.551 3.797C19.9663 3.797 20.3396 3.87633 20.671 4.035C21.007 4.19367 21.2916 4.42467 21.525 4.728C21.7583 5.02667 21.9356 5.39067 22.057 5.82C22.183 6.24933 22.246 6.73233 22.246 7.269C22.246 7.843 22.176 8.36567 22.036 8.837C21.896 9.30833 21.693 9.712 21.427 10.048C21.1656 10.3793 20.846 10.6383 20.468 10.825C20.09 11.007 19.6653 11.098 19.194 11.098C18.7273 11.098 18.333 11.0117 18.011 10.839C17.6936 10.6617 17.416 10.412 17.178 10.09L17.115 10.734C17.0776 10.9113 16.9703 11 16.793 11H15.988V0.689H17.241V4.931ZM27.952 5.078C27.896 5.18067 27.8096 5.232 27.693 5.232C27.623 5.232 27.5436 5.20633 27.455 5.155C27.3663 5.10367 27.2566 5.04767 27.126 4.987C27 4.92167 26.8483 4.86333 26.671 4.812C26.4936 4.756 26.2836 4.728 26.041 4.728C25.831 4.728 25.642 4.756 25.474 4.812C25.306 4.86333 25.1613 4.93567 25.04 5.029C24.9233 5.12233 24.8323 5.232 24.767 5.358C24.7063 5.47933 24.676 5.61233 24.676 5.757C24.676 5.939 24.7273 6.09067 24.83 6.212C24.9373 6.33333 25.0773 6.43833 25.25 6.527C25.4226 6.61567 25.6186 6.695 25.838 6.765C26.0573 6.83033 26.2813 6.90267 26.51 6.982C26.7433 7.05667 26.9696 7.14067 27.189 7.234C27.4083 7.32733 27.6043 7.444 27.777 7.584C27.9496 7.724 28.0873 7.89667 28.19 8.102C28.2973 8.30267 28.351 8.54533 28.351 8.83C28.351 9.15667 28.2926 9.46 28.176 9.74C28.0593 10.0153 27.8866 10.2557 27.658 10.461C27.4293 10.6617 27.1493 10.8203 26.818 10.937C26.4866 11.0537 26.104 11.112 25.67 11.112C25.1753 11.112 24.7273 11.0327 24.326 10.874C23.9246 10.7107 23.584 10.503 23.304 10.251L23.598 9.775C23.6353 9.71433 23.6796 9.66767 23.731 9.635C23.7823 9.60233 23.8476 9.586 23.927 9.586C24.011 9.586 24.0996 9.61867 24.193 9.684C24.2863 9.74933 24.3983 9.82167 24.529 9.901C24.6643 9.98033 24.8276 10.0527 25.019 10.118C25.2103 10.1833 25.4483 10.216 25.733 10.216C25.9756 10.216 26.188 10.1857 26.37 10.125C26.552 10.0597 26.7036 9.97333 26.825 9.866C26.9463 9.75867 27.035 9.635 27.091 9.495C27.1516 9.355 27.182 9.20567 27.182 9.047C27.182 8.851 27.1283 8.69 27.021 8.564C26.9183 8.43333 26.7806 8.32367 26.608 8.235C26.4353 8.14167 26.237 8.06233 26.013 7.997C25.7936 7.927 25.5673 7.85467 25.334 7.78C25.1053 7.70533 24.879 7.62133 24.655 7.528C24.4356 7.43 24.2396 7.30867 24.067 7.164C23.8943 7.01933 23.7543 6.842 23.647 6.632C23.5443 6.41733 23.493 6.15833 23.493 5.855C23.493 5.58433 23.549 5.32533 23.661 5.078C23.773 4.826 23.9363 4.60667 24.151 4.42C24.3656 4.22867 24.6293 4.077 24.942 3.965C25.2546 3.853 25.6116 3.797 26.013 3.797C26.4796 3.797 26.8973 3.87167 27.266 4.021C27.6393 4.16567 27.9613 4.36633 28.232 4.623L27.952 5.078ZM34.8136 5.169C34.7763 5.22033 34.7389 5.26 34.7016 5.288C34.6643 5.316 34.6129 5.33 34.5476 5.33C34.4776 5.33 34.4006 5.302 34.3166 5.246C34.2326 5.18533 34.1276 5.12 34.0016 5.05C33.8803 4.98 33.7286 4.917 33.5466 4.861C33.3693 4.80033 33.1499 4.77 32.8886 4.77C32.5386 4.77 32.2306 4.833 31.9646 4.959C31.6986 5.08033 31.4746 5.25767 31.2926 5.491C31.1153 5.72433 30.9799 6.00667 30.8866 6.338C30.7979 6.66933 30.7536 7.04033 30.7536 7.451C30.7536 7.88033 30.8026 8.263 30.9006 8.599C30.9986 8.93033 31.1363 9.21033 31.3136 9.439C31.4956 9.663 31.7126 9.83567 31.9646 9.957C32.2213 10.0737 32.5083 10.132 32.8256 10.132C33.1289 10.132 33.3786 10.097 33.5746 10.027C33.7706 9.95233 33.9316 9.87067 34.0576 9.782C34.1883 9.69333 34.2956 9.614 34.3796 9.544C34.4683 9.46933 34.5546 9.432 34.6386 9.432C34.7413 9.432 34.8206 9.47167 34.8766 9.551L35.2266 10.006C35.0726 10.1973 34.8976 10.3607 34.7016 10.496C34.5056 10.6313 34.2933 10.7457 34.0646 10.839C33.8406 10.9277 33.6049 10.993 33.3576 11.035C33.1103 11.077 32.8583 11.098 32.6016 11.098C32.1583 11.098 31.7453 11.0163 31.3626 10.853C30.9846 10.6897 30.6556 10.454 30.3756 10.146C30.0956 9.83333 29.8763 9.45067 29.7176 8.998C29.5589 8.54533 29.4796 8.02967 29.4796 7.451C29.4796 6.92367 29.5519 6.436 29.6966 5.988C29.8459 5.54 30.0606 5.155 30.3406 4.833C30.6253 4.50633 30.9729 4.252 31.3836 4.07C31.7989 3.888 32.2749 3.797 32.8116 3.797C33.3109 3.797 33.7496 3.87867 34.1276 4.042C34.5103 4.20067 34.8486 4.427 35.1426 4.721L34.8136 5.169ZM37.7471 5.33C37.9711 4.84467 38.2465 4.46667 38.5731 4.196C38.8998 3.92067 39.2988 3.783 39.7701 3.783C39.9195 3.783 40.0618 3.79933 40.1971 3.832C40.3371 3.86467 40.4608 3.916 40.5681 3.986L40.4771 4.917C40.4491 5.03367 40.3791 5.092 40.2671 5.092C40.2018 5.092 40.1061 5.078 39.9801 5.05C39.8541 5.022 39.7118 5.008 39.5531 5.008C39.3291 5.008 39.1285 5.04067 38.9511 5.106C38.7785 5.17133 38.6221 5.26933 38.4821 5.4C38.3468 5.526 38.2231 5.68467 38.1111 5.876C38.0038 6.06267 37.9058 6.27733 37.8171 6.52V11H36.5641V3.909H37.2781C37.4135 3.909 37.5068 3.93467 37.5581 3.986C37.6095 4.03733 37.6445 4.126 37.6631 4.252L37.7471 5.33ZM42.9798 3.909V11H41.7338V3.909H42.9798ZM43.2458 1.683C43.2458 1.80433 43.2201 1.91867 43.1688 2.026C43.1221 2.12867 43.0568 2.222 42.9728 2.306C42.8934 2.38533 42.7978 2.44833 42.6858 2.495C42.5784 2.54167 42.4641 2.565 42.3428 2.565C42.2214 2.565 42.1071 2.54167 41.9998 2.495C41.8971 2.44833 41.8061 2.38533 41.7268 2.306C41.6474 2.222 41.5844 2.12867 41.5378 2.026C41.4911 1.91867 41.4678 1.80433 41.4678 1.683C41.4678 1.56167 41.4911 1.44733 41.5378 1.34C41.5844 1.228 41.6474 1.13233 41.7268 1.053C41.8061 0.969 41.8971 0.903666 41.9998 0.856999C42.1071 0.810333 42.2214 0.786999 42.3428 0.786999C42.4641 0.786999 42.5784 0.810333 42.6858 0.856999C42.7978 0.903666 42.8934 0.969 42.9728 1.053C43.0568 1.13233 43.1221 1.228 43.1688 1.34C43.2201 1.44733 43.2458 1.56167 43.2458 1.683ZM46.28 9.292C46.5087 9.6 46.7584 9.817 47.029 9.943C47.3044 10.069 47.6054 10.132 47.932 10.132C48.5994 10.132 49.1104 9.89633 49.465 9.425C49.8197 8.95367 49.997 8.25133 49.997 7.318C49.997 6.45 49.8384 5.813 49.521 5.407C49.2084 4.99633 48.7604 4.791 48.177 4.791C47.771 4.791 47.4164 4.88433 47.113 5.071C46.8144 5.25767 46.5367 5.52133 46.28 5.862V9.292ZM46.28 4.931C46.5787 4.58567 46.9147 4.31033 47.288 4.105C47.666 3.89967 48.1 3.797 48.59 3.797C49.0054 3.797 49.3787 3.87633 49.71 4.035C50.046 4.19367 50.3307 4.42467 50.564 4.728C50.7974 5.02667 50.9747 5.39067 51.096 5.82C51.222 6.24933 51.285 6.73233 51.285 7.269C51.285 7.843 51.215 8.36567 51.075 8.837C50.935 9.30833 50.732 9.712 50.466 10.048C50.2047 10.3793 49.885 10.6383 49.507 10.825C49.129 11.007 48.7044 11.098 48.233 11.098C47.7664 11.098 47.372 11.0117 47.05 10.839C46.7327 10.6617 46.455 10.412 46.217 10.09L46.154 10.734C46.1167 10.9113 46.0094 11 45.832 11H45.027V0.689H46.28V4.931ZM57.607 6.681C57.607 6.39167 57.565 6.128 57.481 5.89C57.4017 5.64733 57.2827 5.43967 57.124 5.267C56.97 5.08967 56.781 4.95433 56.557 4.861C56.333 4.763 56.0787 4.714 55.794 4.714C55.1967 4.714 54.723 4.889 54.373 5.239C54.0277 5.58433 53.813 6.065 53.729 6.681H57.607ZM58.615 10.006C58.461 10.1927 58.2767 10.356 58.062 10.496C57.8474 10.6313 57.6164 10.7433 57.369 10.832C57.1264 10.9207 56.8744 10.986 56.613 11.028C56.3517 11.0747 56.0927 11.098 55.836 11.098C55.346 11.098 54.8934 11.0163 54.478 10.853C54.0674 10.685 53.7104 10.4423 53.407 10.125C53.1084 9.803 52.875 9.40633 52.707 8.935C52.539 8.46367 52.455 7.92233 52.455 7.311C52.455 6.81633 52.5297 6.35433 52.679 5.925C52.833 5.49567 53.0524 5.12467 53.337 4.812C53.6217 4.49467 53.9694 4.24733 54.38 4.07C54.7907 3.888 55.2527 3.797 55.766 3.797C56.1907 3.797 56.5827 3.86933 56.942 4.014C57.306 4.154 57.6187 4.35933 57.88 4.63C58.146 4.896 58.3537 5.22733 58.503 5.624C58.6524 6.016 58.727 6.464 58.727 6.968C58.727 7.164 58.706 7.29467 58.664 7.36C58.622 7.42533 58.5427 7.458 58.426 7.458H53.687C53.701 7.906 53.7617 8.29567 53.869 8.627C53.981 8.95833 54.135 9.236 54.331 9.46C54.527 9.67933 54.7604 9.845 55.031 9.957C55.3017 10.0643 55.605 10.118 55.941 10.118C56.2537 10.118 56.522 10.083 56.746 10.013C56.9747 9.93833 57.1707 9.859 57.334 9.775C57.4974 9.691 57.6327 9.614 57.74 9.544C57.852 9.46933 57.9477 9.432 58.027 9.432C58.1297 9.432 58.209 9.47167 58.265 9.551L58.615 10.006Z" fill="white"/>
</svg>
